<svg width="1870" height="1316" viewBox="0 0 1870 1316" fill="none" xmlns="http://www.w3.org/2000/svg">
<g clip-path="url(#clip0_177_172)">
<path d="M2110 309H-32V983H2110V309Z" fill="#9249BE"/>
</g>
<g clip-path="url(#clip1_177_172)">
<path d="M-32 1316L2034 1316L2034 903L-32 903L-32 1316Z" fill="white"/>
<path d="M2034 1113.63L1995.74 1098.93C1957.39 1084.14 1880.87 1054.74 1804.26 1045.24C1727.65 1035.74 1651.13 1046.15 1574.69 1040.78C1498.24 1035.41 1421.89 1014.26 1345.44 1020.04C1269 1025.83 1192.48 1058.54 1115.87 1058.04C1039.26 1057.46 962.738 1023.6 886.13 1013.27C809.523 1002.95 732.998 1016.16 656.556 1027.97C580.114 1039.87 503.755 1050.28 427.313 1051.27C350.871 1052.26 274.347 1043.67 197.739 1036.81C121.132 1029.96 44.6074 1024.67 6.26241 1022.11L-31.9999 1019.47L-31.9999 902.174L6.26242 902.174C44.6074 902.174 121.132 902.174 197.739 902.174C274.347 902.174 350.871 902.174 427.313 902.174C503.755 902.174 580.114 902.174 656.556 902.174C732.998 902.174 809.523 902.174 886.13 902.174C962.738 902.174 1039.26 902.174 1115.87 902.174C1192.48 902.174 1269 902.174 1345.44 902.174C1421.89 902.174 1498.24 902.174 1574.69 902.174C1651.13 902.174 1727.65 902.174 1804.26 902.174C1880.87 902.174 1957.39 902.174 1995.74 902.174L2034 902.174L2034 1113.63Z" fill="#9249BE"/>
</g>
<path d="M-28 0.982056L25.5428 15.1046C79.0374 29.2754 186.123 57.5206 293.064 62.8226C400.053 68.1246 506.946 50.4834 613.936 42.0966C720.877 33.758 827.963 34.7221 935 50.4835C1042.04 66.1967 1149.12 96.7555 1256.06 112.806C1363.05 128.857 1469.95 130.495 1576.94 117.867C1683.88 105.239 1790.96 78.4394 1844.46 64.9916L1898 51.5921V362.482H1844.46C1790.96 362.482 1683.88 362.482 1576.94 362.482C1469.95 362.482 1363.05 362.482 1256.06 362.482C1149.12 362.482 1042.04 362.482 935 362.482C827.963 362.482 720.877 362.482 613.936 362.482C506.946 362.482 400.053 362.482 293.064 362.482C186.123 362.482 79.0374 362.482 25.5428 362.482H-28V0.982056Z" fill="#F1E5F6"/>
<path d="M-28 128.23L25.5428 126.302C79.0374 124.374 186.123 120.518 293.064 122.542C400.053 124.519 506.946 132.423 613.936 126.061C720.877 119.699 827.963 99.1655 935 95.5505C1042.04 91.9355 1149.12 105.239 1256.06 117.963C1363.05 130.64 1469.95 142.69 1576.94 146.45C1683.88 150.257 1790.96 145.727 1844.46 143.509L1898 141.244V362.482H1844.46C1790.96 362.482 1683.88 362.482 1576.94 362.482C1469.95 362.482 1363.05 362.482 1256.06 362.482C1149.12 362.482 1042.04 362.482 935 362.482C827.963 362.482 720.877 362.482 613.936 362.482C506.946 362.482 400.053 362.482 293.064 362.482C186.123 362.482 79.0374 362.482 25.5428 362.482H-28V128.23Z" fill="#E2CBED"/>
<path d="M-28 176.43L25.5428 162.838C79.0374 149.293 186.123 122.109 293.064 114.011C400.053 105.913 506.946 116.807 613.936 131.267C720.877 145.727 827.963 163.753 935 160.669C1042.04 157.632 1149.12 133.532 1256.06 128.085C1363.05 122.591 1469.95 135.797 1576.94 140.907C1683.88 146.064 1790.96 143.172 1844.46 141.726L1898 140.28V362.482H1844.46C1790.96 362.482 1683.88 362.482 1576.94 362.482C1469.95 362.482 1363.05 362.482 1256.06 362.482C1149.12 362.482 1042.04 362.482 935 362.482C827.963 362.482 720.877 362.482 613.936 362.482C506.946 362.482 400.053 362.482 293.064 362.482C186.123 362.482 79.0374 362.482 25.5428 362.482H-28V176.43Z" fill="#D3B1E4"/>
<path d="M-28 219.328L25.5428 206.892C79.0374 194.409 186.123 169.537 293.064 159.946C400.053 150.402 506.946 156.186 613.936 157.246C720.877 158.259 827.963 154.595 935 155.8C1042.04 157.005 1149.12 163.079 1256.06 170.164C1363.05 177.249 1469.95 185.251 1576.94 184.528C1683.88 183.805 1790.96 174.357 1844.46 169.586L1898 164.862V362.482H1844.46C1790.96 362.482 1683.88 362.482 1576.94 362.482C1469.95 362.482 1363.05 362.482 1256.06 362.482C1149.12 362.482 1042.04 362.482 935 362.482C827.963 362.482 720.877 362.482 613.936 362.482C506.946 362.482 400.053 362.482 293.064 362.482C186.123 362.482 79.0374 362.482 25.5428 362.482H-28V219.328Z" fill="#C397DA"/>
<path d="M-28 237.644L25.5428 229.546C79.0374 221.401 186.123 205.205 293.064 203.277C400.053 201.349 506.946 213.689 613.936 216.773C720.877 219.81 827.963 213.544 935 216.34C1042.04 219.183 1149.12 231.041 1256.06 237.885C1363.05 244.729 1469.95 246.465 1576.94 240.681C1683.88 234.897 1790.96 221.593 1844.46 214.894L1898 208.242V362.482H1844.46C1790.96 362.482 1683.88 362.482 1576.94 362.482C1469.95 362.482 1363.05 362.482 1256.06 362.482C1149.12 362.482 1042.04 362.482 935 362.482C827.963 362.482 720.877 362.482 613.936 362.482C506.946 362.482 400.053 362.482 293.064 362.482C186.123 362.482 79.0374 362.482 25.5428 362.482H-28V237.644Z" fill="#B37DD1"/>
<path d="M-28 300.786L25.5428 295.821C79.0374 290.809 186.123 280.879 293.064 276.927C400.053 272.975 506.946 275.095 613.936 270.902C720.877 266.709 827.963 256.297 935 255.815C1042.04 255.333 1149.12 264.781 1256.06 264.781C1363.05 264.781 1469.95 255.333 1576.94 259.479C1683.88 263.672 1790.96 281.506 1844.46 290.423L1898 299.34V362.482H1844.46C1790.96 362.482 1683.88 362.482 1576.94 362.482C1469.95 362.482 1363.05 362.482 1256.06 362.482C1149.12 362.482 1042.04 362.482 935 362.482C827.963 362.482 720.877 362.482 613.936 362.482C506.946 362.482 400.053 362.482 293.064 362.482C186.123 362.482 79.0374 362.482 25.5428 362.482H-28V300.786Z" fill="#A364C8"/>
<path d="M-28 331.634L25.5428 325.031C79.0374 318.475 186.123 305.269 293.064 303.341C400.053 301.413 506.946 310.763 613.936 309.317C720.877 307.871 827.963 295.629 935 296.207C1042.04 296.785 1149.12 310.089 1256.06 314.378C1363.05 318.62 1469.95 313.8 1576.94 308.98C1683.88 304.16 1790.96 299.34 1844.46 296.93L1898 294.52V362.482H1844.46C1790.96 362.482 1683.88 362.482 1576.94 362.482C1469.95 362.482 1363.05 362.482 1256.06 362.482C1149.12 362.482 1042.04 362.482 935 362.482C827.963 362.482 720.877 362.482 613.936 362.482C506.946 362.482 400.053 362.482 293.064 362.482C186.123 362.482 79.0374 362.482 25.5428 362.482H-28V331.634Z" fill="#9249BE"/>
<defs>
<clipPath id="clip0_177_172">
<rect width="2142" height="674" fill="white" transform="translate(-32 309)"/>
</clipPath>
<clipPath id="clip1_177_172">
<rect width="2066" height="413" fill="white" transform="translate(2034 1316) rotate(-180)"/>
</clipPath>
</defs>
</svg>
