<svg width="1870" height="1164" viewBox="0 0 1870 1164" fill="none" xmlns="http://www.w3.org/2000/svg">
<rect y="589.998" width="1870" height="287" fill="#C690CB"/>
<path d="M1899 1163.45L1863.87 1146.47C1828.74 1129.42 1758.47 1095.45 1688.08 1077.58C1617.76 1059.71 1547.24 1058.06 1476.92 1063.19C1406.53 1068.39 1336.26 1080.43 1266 1096.46C1195.74 1112.56 1125.47 1132.59 1055.08 1140.51C984.758 1148.43 914.242 1144.25 843.916 1135.12C773.526 1126.06 703.263 1112.12 633 1115.41C562.737 1118.64 492.474 1139.18 422.084 1144.63C351.758 1150.14 281.242 1140.64 210.916 1122.89C140.526 1105.15 70.263 1079.16 35.1315 1066.17L-3.89971e-05 1053.18L-2.35393e-05 876.362L35.1315 876.362C70.263 876.362 140.526 876.362 210.916 876.362C281.242 876.362 351.758 876.362 422.084 876.362C492.474 876.362 562.737 876.362 633 876.362C703.263 876.362 773.526 876.362 843.916 876.362C914.242 876.362 984.758 876.362 1055.08 876.362C1125.47 876.362 1195.74 876.362 1266 876.362C1336.26 876.362 1406.53 876.362 1476.92 876.362C1547.24 876.362 1617.76 876.362 1688.08 876.363C1758.47 876.363 1828.74 876.363 1863.87 876.363L1899 876.363L1899 1163.45Z" fill="#F4E8F5"/>
<path d="M1899 1091.2L1863.87 1084.36C1828.74 1077.45 1758.47 1063.76 1688.08 1066.3C1617.76 1068.83 1547.24 1087.59 1476.92 1082.52C1406.53 1077.45 1336.26 1048.55 1266 1039.43C1195.74 1030.36 1125.47 1041.14 1055.08 1055.27C984.758 1069.47 914.242 1086.96 843.916 1090.57C773.526 1094.18 703.263 1083.79 633 1084.99C562.737 1086.13 492.474 1098.81 422.084 1103.75C351.758 1108.76 281.242 1105.97 210.916 1090.38C140.526 1074.73 70.263 1046.21 35.1315 1031.95L-4.09153e-05 1017.69L-2.85602e-05 876.363L35.1315 876.363C70.263 876.363 140.526 876.363 210.916 876.363C281.242 876.363 351.758 876.363 422.084 876.363C492.474 876.363 562.737 876.363 633 876.363C703.263 876.363 773.526 876.363 843.916 876.363C914.242 876.363 984.758 876.363 1055.08 876.363C1125.47 876.363 1195.74 876.363 1266 876.363C1336.26 876.363 1406.53 876.363 1476.92 876.363C1547.24 876.363 1617.76 876.363 1688.08 876.363C1758.47 876.363 1828.74 876.363 1863.87 876.363L1899 876.363L1899 1091.2Z" fill="#E9D2EA"/>
<rect x="-47" y="284.998" width="2097" height="404" fill="#C690CB"/>
<path d="M1899 1035.43L1863.87 1037.15C1828.74 1038.79 1758.47 1042.22 1688.08 1039.68C1617.76 1037.15 1547.24 1028.65 1476.92 1018.51C1406.53 1008.37 1336.26 996.586 1266 990.121C1195.74 983.657 1125.47 982.643 1055.08 992.213C984.758 1001.85 914.242 1022.13 843.916 1025.29C773.526 1028.46 703.263 1014.52 633 1006.92C562.737 999.311 492.474 998.043 422.084 1007.68C351.758 1017.25 281.242 1037.78 210.916 1040.82C140.526 1043.86 70.263 1029.54 35.1315 1022.32L-4.6357e-05 1015.15L-3.42235e-05 876.363L35.1315 876.363C70.263 876.363 140.526 876.363 210.916 876.363C281.242 876.363 351.758 876.363 422.084 876.363C492.474 876.363 562.737 876.363 633 876.363C703.263 876.363 773.526 876.363 843.916 876.363C914.242 876.363 984.758 876.363 1055.08 876.363C1125.47 876.363 1195.74 876.363 1266 876.363C1336.26 876.363 1406.53 876.363 1476.92 876.363C1547.24 876.363 1617.76 876.363 1688.08 876.363C1758.47 876.363 1828.74 876.363 1863.87 876.363L1899 876.363L1899 1035.43Z" fill="#DDBCE0"/>
<path d="M1899 969.525L1863.87 968.765C1828.74 968.067 1758.47 966.546 1688.08 972.504C1617.76 978.398 1547.24 991.706 1476.92 995.509C1406.53 999.311 1336.26 993.607 1266 985.876C1195.74 978.207 1125.47 968.448 1055.08 967.434C984.758 966.356 914.242 973.961 843.916 973.961C773.526 973.961 703.263 966.356 633 966.99C562.737 967.624 492.474 976.496 422.084 981.693C351.758 986.826 281.242 988.347 210.916 981.756C140.526 975.229 70.263 960.652 35.1315 953.364L-4.42102e-05 946.076L-3.81157e-05 876.364L35.1315 876.364C70.263 876.364 140.526 876.364 210.916 876.364C281.242 876.364 351.758 876.364 422.084 876.364C492.474 876.364 562.737 876.364 633 876.364C703.263 876.364 773.526 876.364 843.916 876.364C914.242 876.364 984.758 876.364 1055.08 876.364C1125.47 876.364 1195.74 876.364 1266 876.364C1336.26 876.364 1406.53 876.364 1476.92 876.364C1547.24 876.364 1617.76 876.364 1688.08 876.364C1758.47 876.364 1828.74 876.364 1863.87 876.364L1899 876.364L1899 969.525Z" fill="#D2A6D5"/>
<path d="M1899 949.245L1863.87 947.534C1828.74 945.886 1758.47 942.464 1688.08 944.619C1617.76 946.71 1547.24 954.315 1476.92 955.392C1406.53 956.406 1336.26 950.956 1266 942.908C1195.74 934.859 1125.47 924.339 1055.08 924.085C984.758 923.895 914.242 934.035 843.916 935.302C773.526 936.57 703.263 928.965 633 930.549C562.737 932.134 492.474 942.907 422.084 947.977C351.758 953.047 281.242 952.414 210.916 948.421C140.526 944.365 70.263 937.014 35.1315 933.274L-4.63718e-05 929.599L-4.17179e-05 876.364L35.1315 876.364C70.263 876.364 140.526 876.364 210.916 876.364C281.242 876.364 351.758 876.364 422.084 876.364C492.474 876.364 562.737 876.364 633 876.364C703.263 876.364 773.526 876.364 843.916 876.364C914.242 876.364 984.758 876.364 1055.08 876.364C1125.47 876.364 1195.74 876.364 1266 876.364C1336.26 876.364 1406.53 876.364 1476.92 876.364C1547.24 876.364 1617.76 876.364 1688.08 876.364C1758.47 876.364 1828.74 876.364 1863.87 876.364L1899 876.364L1899 949.245Z" fill="#C690CB"/>
<path d="M-1 128.317L50.9326 123.612C102.812 118.854 206.677 109.445 310.595 80.8429C414.514 52.241 518.486 4.44638 622.405 1.18522C726.323 -2.12939 830.188 39.036 934 79.3994C1037.81 119.763 1141.68 159.324 1245.6 144.729C1349.51 130.081 1453.49 61.3295 1557.4 30.0545C1661.32 -1.22055 1765.19 4.98099 1817.07 8.13522L1869 11.236V330.936H1817.07C1765.19 330.936 1661.32 330.936 1557.4 330.936C1453.49 330.936 1349.51 330.936 1245.6 330.936C1141.68 330.936 1037.81 330.936 934 330.936C830.188 330.936 726.323 330.936 622.405 330.936C518.486 330.936 414.514 330.936 310.595 330.936C206.677 330.936 102.812 330.936 50.9326 330.936H-1V128.317Z" fill="#C690CB"/>
</svg>
